<svg width="75" height="75" viewBox="0 0 75 75" fill="none" xmlns="http://www.w3.org/2000/svg">
<path d="M30.2109 59.475V34.4719H27.2437C25.1186 35.6047 23.0648 36.8664 21.0938 38.25V41.5078C22.8516 40.3031 25.6359 38.6016 26.9906 37.8656H27.0469V59.475H30.2109ZM35.7797 53.3578C36 56.3578 38.5641 59.9484 43.7625 59.9484C49.6594 59.9484 53.1375 54.9516 53.1375 46.4906C53.1375 37.425 49.4766 33.9844 43.9828 33.9844C39.6422 33.9844 35.5594 37.1344 35.5594 42.4641C35.5594 47.9016 39.4219 50.7609 43.4156 50.7609C46.9125 50.7609 49.1813 48.9984 49.8984 47.0578H50.025C50.0063 53.2266 47.8641 57.2016 43.9078 57.2016C40.7953 57.2016 39.1828 55.0922 38.9859 53.3578H35.7797ZM49.6219 42.4969C49.6219 45.7594 47.0016 48.0281 44.0719 48.0281C41.2547 48.0281 38.7094 46.2328 38.7094 42.4031C38.7094 38.5453 41.4375 36.7312 44.1844 36.7312C47.1516 36.7312 49.6219 38.5969 49.6219 42.4969Z" fill="#B4BBC1"/>
<path d="M16.4062 0C17.0279 0 17.624 0.24693 18.0635 0.686468C18.5031 1.12601 18.75 1.72215 18.75 2.34375V4.6875H56.25V2.34375C56.25 1.72215 56.4969 1.12601 56.9365 0.686468C57.376 0.24693 57.9721 0 58.5938 0C59.2154 0 59.8115 0.24693 60.251 0.686468C60.6906 1.12601 60.9375 1.72215 60.9375 2.34375V4.6875H65.625C68.1114 4.6875 70.496 5.67522 72.2541 7.43337C74.0123 9.19153 75 11.5761 75 14.0625V65.625C75 68.1114 74.0123 70.496 72.2541 72.2541C70.496 74.0123 68.1114 75 65.625 75H9.375C6.8886 75 4.50403 74.0123 2.74587 72.2541C0.987721 70.496 0 68.1114 0 65.625V14.0625C0 11.5761 0.987721 9.19153 2.74587 7.43337C4.50403 5.67522 6.8886 4.6875 9.375 4.6875H14.0625V2.34375C14.0625 1.72215 14.3094 1.12601 14.749 0.686468C15.1885 0.24693 15.7846 0 16.4062 0V0ZM9.375 9.375C8.1318 9.375 6.93951 9.86886 6.06044 10.7479C5.18136 11.627 4.6875 12.8193 4.6875 14.0625V65.625C4.6875 66.8682 5.18136 68.0605 6.06044 68.9396C6.93951 69.8186 8.1318 70.3125 9.375 70.3125H65.625C66.8682 70.3125 68.0605 69.8186 68.9396 68.9396C69.8186 68.0605 70.3125 66.8682 70.3125 65.625V14.0625C70.3125 12.8193 69.8186 11.627 68.9396 10.7479C68.0605 9.86886 66.8682 9.375 65.625 9.375H9.375Z" fill="#B4BBC1"/>
<path d="M11.7188 18.75C11.7188 18.1284 11.9657 17.5323 12.4052 17.0927C12.8448 16.6532 13.4409 16.4062 14.0625 16.4062H60.9375C61.5591 16.4062 62.1552 16.6532 62.5948 17.0927C63.0343 17.5323 63.2812 18.1284 63.2812 18.75V23.4375C63.2812 24.0591 63.0343 24.6552 62.5948 25.0948C62.1552 25.5343 61.5591 25.7812 60.9375 25.7812H14.0625C13.4409 25.7812 12.8448 25.5343 12.4052 25.0948C11.9657 24.6552 11.7188 24.0591 11.7188 23.4375V18.75Z" fill="#B4BBC1"/>
</svg>
