<svg width="70" height="71" viewBox="0 0 70 71" fill="none" xmlns="http://www.w3.org/2000/svg">
<path d="M33.9062 39.7188L36.8125 30.0312L39.7188 39.7188L36.8125 43.5938L33.9062 39.7188Z" fill="#B4BBC1"/>
<path fill-rule="evenodd" clip-rule="evenodd" d="M64.9217 24.9027C66.3177 24.4822 67.541 23.6234 68.4107 22.4533C69.2803 21.2832 69.7499 19.8641 69.75 18.4062V6.78125C69.75 4.98275 69.0355 3.25791 67.7638 1.98618C66.4921 0.714451 64.7672 0 62.9688 0C61.1703 0 59.4454 0.714451 58.1737 1.98618C56.902 3.25791 56.1875 4.98275 56.1875 6.78125V18.4062C56.1875 19.8692 56.6604 21.293 57.5358 22.4652C58.4112 23.6373 59.6421 24.4951 61.0448 24.9104C61.0622 27.0901 61.0894 29.1729 61.1165 31.1608V31.1627C61.2114 38.2366 61.2909 44.1324 60.7736 49.0342C60.0431 55.9705 58.1773 60.2059 54.0252 62.651C48.4452 65.9389 40.0036 67.0782 32.8968 66.1831C29.357 65.7374 26.3306 64.8074 24.2517 63.5364C23.4108 63.023 22.7695 62.4863 22.3026 61.9322C25.8366 61.7326 29.2872 61.0932 32.0927 59.9521C35.5376 58.5512 38.6589 56.079 38.7481 52.1749C41.9736 51.7057 44.9224 50.0909 47.055 47.6258C49.1875 45.1608 50.3613 42.0103 50.3615 38.7508C50.3618 35.4913 49.1885 32.3407 47.0563 29.8754C44.924 27.41 41.9755 25.7947 38.75 25.3251V13.7989H38.7442C38.75 13.7214 38.75 13.6419 38.75 13.5625C38.75 8.21306 30.0758 3.875 19.375 3.875C8.67419 3.875 0 8.21306 0 13.5625C0 13.64 0.00193708 13.7214 0.00581208 13.7989H0V52.0025C0 55.8484 3.22594 58.3052 6.64563 59.7234C9.82313 61.0409 13.8434 61.7772 17.8831 61.9554C18.6349 64.0169 20.2663 65.6425 22.2309 66.8437C24.9414 68.5003 28.5549 69.5427 32.4124 70.029C40.0966 70.9958 49.4702 69.8352 55.9918 65.9893C61.7384 62.6045 63.8522 56.8094 64.6272 49.4392C65.1697 44.2971 65.0845 38.0428 64.9896 30.8334C64.9604 28.8566 64.9378 26.8797 64.9217 24.9027V24.9027ZM62.9688 3.875C63.7395 3.875 64.4788 4.18119 65.0238 4.72622C65.5688 5.27125 65.875 6.01046 65.875 6.78125V18.4062C65.875 19.177 65.5688 19.9162 65.0238 20.4613C64.4788 21.0063 63.7395 21.3125 62.9688 21.3125C62.198 21.3125 61.4587 21.0063 60.9137 20.4613C60.3687 19.9162 60.0625 19.177 60.0625 18.4062V6.78125C60.0625 6.01046 60.3687 5.27125 60.9137 4.72622C61.4587 4.18119 62.198 3.875 62.9688 3.875V3.875ZM34.875 13.5625C34.875 13.9791 34.4371 15.3992 31.3429 16.9473C28.4793 18.3772 24.2536 19.375 19.375 19.375C14.4964 19.375 10.2687 18.3772 7.40706 16.9473C4.31287 15.3992 3.875 13.9791 3.875 13.5625C3.875 13.1459 4.31287 11.7257 7.40706 10.1777C10.2707 8.74781 14.4964 7.75 19.375 7.75C24.2536 7.75 28.4813 8.74781 31.3429 10.1777C34.4371 11.7257 34.875 13.1459 34.875 13.5625ZM34.875 19.375C31.3391 21.7291 25.7126 23.25 19.375 23.25C18.7821 23.25 18.1931 23.2364 17.6119 23.2112V58.063C18.2048 58.0959 18.7996 58.1153 19.3963 58.1211C23.5968 58.1715 27.6791 57.5651 30.6338 56.3638C33.5653 55.1684 34.7839 53.6823 34.8692 52.1749C31.6401 51.7092 28.6871 50.0952 26.5514 47.6288C24.4158 45.1625 23.2406 42.009 23.2413 38.7465C23.242 35.484 24.4186 32.3311 26.5553 29.8656C28.692 27.4002 31.6457 25.7875 34.875 25.3231V19.375ZM46.5 38.75C46.5 41.3193 45.4794 43.7833 43.6626 45.6001C41.8458 47.4169 39.3818 48.4375 36.8125 48.4375C34.2432 48.4375 31.7792 47.4169 29.9624 45.6001C28.1456 43.7833 27.125 41.3193 27.125 38.75C27.125 36.1807 28.1456 33.7167 29.9624 31.8999C31.7792 30.0831 34.2432 29.0625 36.8125 29.0625C39.3818 29.0625 41.8458 30.0831 43.6626 31.8999C45.4794 33.7167 46.5 36.1807 46.5 38.75V38.75Z" fill="#B4BBC1"/>
</svg>
