<svg width="94" height="94" viewBox="0 0 94 94" fill="none" xmlns="http://www.w3.org/2000/svg">
<path fill-rule="evenodd" clip-rule="evenodd" d="M65.0101 32.0729C66.4632 33.6768 66.0186 36.1384 64.2463 37.38L54.7053 44.0736C52.935 45.3152 50.5145 44.8138 48.7657 43.5448C46.7973 42.1114 44.4343 41.3208 41.9996 41.281C39.565 41.2409 37.1771 41.9521 35.1611 43.3177C33.3693 44.5299 30.9351 44.9509 29.2078 43.6506L19.892 36.6436C18.1648 35.3433 17.8005 32.866 19.3065 31.3131C22.2887 28.2376 25.8698 25.8063 29.8286 24.1695C33.7875 22.5326 38.0399 21.7249 42.3232 21.7963C46.6066 21.8677 50.8297 22.8166 54.7318 24.5845C58.6339 26.3524 62.1321 28.9017 65.0101 32.0749V32.0729ZM61.769 34.3367C59.2582 31.6683 56.238 29.5303 52.8869 28.0489C49.5357 26.5675 45.9217 25.7728 42.2582 25.7119C38.5947 25.6509 34.9562 26.3248 31.5577 27.6939C28.1591 29.0629 25.0694 31.0993 22.4711 33.6827L31.5539 40.5133C31.6373 40.5331 31.7236 40.5371 31.8085 40.5251C32.1159 40.4976 32.5468 40.3567 32.9639 40.0747C35.7314 38.1998 39.0233 37.2533 42.3639 37.3721C42.4405 37.212 42.5387 37.0631 42.6557 36.9296L48.0333 30.7451C48.374 30.353 48.8565 30.1123 49.3747 30.0759C49.8929 30.0396 50.4043 30.2106 50.7965 30.5513C51.1886 30.892 51.4293 31.3745 51.4657 31.8927C51.5021 32.4109 51.3311 32.9224 50.9904 33.3145L46.7702 38.1672C48.308 38.6774 49.7579 39.4219 51.0687 40.3743C51.476 40.67 51.901 40.8247 52.2084 40.8639C52.3573 40.8834 52.4356 40.8697 52.463 40.8619L61.769 34.3367ZM52.4806 40.856L52.465 40.8619C52.4728 40.856 52.4787 40.8541 52.4806 40.856ZM31.5382 40.5074C31.5382 40.5074 31.5441 40.5074 31.5539 40.5133L31.5382 40.5074Z" fill="#B4BBC1"/>
<path fill-rule="evenodd" clip-rule="evenodd" d="M65.7249 82.5C67.7272 82.5001 69.6535 81.7334 71.1082 80.3574C72.5628 78.9814 73.4353 77.1007 73.5464 75.1014L76.5936 20.2681C76.6527 19.2044 76.4943 18.1398 76.1279 17.1395C75.7615 16.1391 75.195 15.224 74.4629 14.4501C73.7308 13.6762 72.8485 13.0598 71.87 12.6385C70.8915 12.2172 69.8374 12 68.772 12H14.8317C13.7665 12.0002 12.7126 12.2177 11.7343 12.6391C10.7561 13.0605 9.87404 13.6769 9.14214 14.4508C8.41023 15.2247 7.84385 16.1397 7.47761 17.1399C7.11136 18.1402 6.95296 19.2046 7.01207 20.2681L10.0573 75.1014C10.1684 77.1007 11.0409 78.9814 12.4956 80.3574C13.9502 81.7334 15.8765 82.5001 17.8789 82.5H65.7249ZM17.8789 78.5833H65.7249C66.7263 78.5833 67.6898 78.1997 68.4172 77.5113C69.1445 76.8229 69.5806 75.8821 69.6357 74.8821L72.6828 20.0487C72.7121 19.5171 72.6327 18.985 72.4494 18.4851C72.2661 17.9851 71.9827 17.5278 71.6167 17.1411C71.2507 16.7543 70.8096 16.4463 70.3205 16.2358C69.8314 16.0252 69.3045 15.9167 68.772 15.9167H14.8317C14.2992 15.9167 13.7723 16.0252 13.2832 16.2358C12.7941 16.4463 12.353 16.7543 11.987 17.1411C11.621 17.5278 11.3377 17.9851 11.1544 18.4851C10.9711 18.985 10.8916 19.5171 10.9209 20.0487L13.9681 74.8821C14.0232 75.8821 14.4592 76.8229 15.1866 77.5113C15.9139 78.1997 16.8774 78.5833 17.8789 78.5833V78.5833Z" fill="#B4BBC1"/>
</svg>
